# xmcd
#
# Track frame offsets: 
#        150
#        18205
#        34932
#        48422
#        63958
#        78222
#        92029
#        103571
#        122431
#        137583
#        152039
#        171569
#        186631
#
# Disc length: 2676 seconds
#
# Revision: 0
# Processed by: cddbd v1.5.2PL0 Copyright (c) Steve Scherf et al.
# Submitted via: ExactAudioCopy v0.95b3
#
DISCID=a60a720d
DTITLE=Townes Van Zandt - Live In Texas [CD 1)
DYEAR=2007
DGENRE=Folk
TTITLE0=Poncho And Lefty
TTITLE1=Mr. Mudd And Mr. Gold
TTITLE2=Don't You Take It Too Hard
TTITLE3=Two Girls
TTITLE4=Nine Pound Hammer
TTITLE5=Rex's Blues
TTITLE6=Talking Thunderbird Blues
TTITLE7=She Came And She Touched Me
TTITLE8=To Live Is To Fly
TTITLE9=White Freight Liner Blues
TTITLE10=Brand New Companion
TTITLE11=If I Needed You
TTITLE12=Fraternity Blues
EXTD=
EXTT0=
EXTT1=
EXTT2=
EXTT3=
EXTT4=
EXTT5=
EXTT6=
EXTT7=
EXTT8=
EXTT9=
EXTT10=
EXTT11=
EXTT12=
PLAYORDER=
